<svg xmlns="http://www.w3.org/2000/svg" viewBox="0 0 160 160"><rect width="160" height="160" rx="34" fill="#07180c"/><ellipse cx="80" cy="132" rx="54" ry="12" fill="#000" opacity=".35"/><path d="M45 130 52 54l28-30 28 30 7 76z" fill="#6b3f1d" stroke="#caa06a" stroke-width="5"/><path d="M36 62c-18-12-17-34 5-41 11-25 44-19 48 3 20-12 45 2 40 27 20 8 16 39-10 41-24 14-62 13-83-30z" fill="#2bd066"/><circle cx="65" cy="80" r="7" fill="#fff35a"/><circle cx="96" cy="80" r="7" fill="#fff35a"/><path d="M59 105c16 10 29 10 44 0" stroke="#1a0d04" stroke-width="6" fill="none" stroke-linecap="round"/></svg>