<svg xmlns="http://www.w3.org/2000/svg" viewBox="0 0 160 160" shape-rendering="crispEdges"><rect width="160" height="160" rx="24" fill="none"/><path fill="#171827" d="M34 72h18V54h18V40h38v14h18v18h14v38h-14v18H52v-18H34z"/><path fill="#3b3d68" d="M52 58h18V44h36v14h18v50H52z"/><path fill="#7f83c9" d="M58 64h18v18H58zm48 0h18v18h-18z"/><path fill="#ffffff" d="M72 100h12v12H72zm26 0h12v12H98z"/><path fill="#0b0b14" d="M64 74h10v10H64zm50 0h10v10h-10z"/><path fill="#ff4d7a" d="M74 88h34v10H74z"/><path fill="#2a2c4b" d="M40 112h24v16H40zm56 0h24v16H96z"/></svg>